<svg xmlns="http://www.w3.org/2000/svg" width="1200" height="800" viewBox="0 0 1200 800">
  <defs>
    <linearGradient id="g" x1="0" y1="0" x2="1" y2="1">
      <stop offset="0" stop-color="#72e6ac" stop-opacity="0.9"/>
      <stop offset="0.55" stop-color="#8ab4ff" stop-opacity="0.75"/>
      <stop offset="1" stop-color="#151a22"/>
    </linearGradient>
  </defs>
  <rect width="1200" height="800" fill="#0e1116"/>
  <circle cx="310" cy="560" r="145" fill="none" stroke="url(#g)" stroke-width="32"/>
  <circle cx="880" cy="560" r="145" fill="none" stroke="url(#g)" stroke-width="32"/>
  <path d="M310 560 L500 330 L650 560 L880 560 L700 260 L530 260" fill="none" stroke="#edf2f7" stroke-width="30" stroke-linecap="round" stroke-linejoin="round" opacity="0.9"/>
  <path d="M135 190 C260 120 330 260 455 180 S680 130 760 220 S950 270 1050 170" fill="none" stroke="#72e6ac" stroke-width="16" stroke-linecap="round" opacity="0.75"/>
  <path d="M140 290 C300 220 390 370 530 285 S780 245 900 350 S1030 390 1100 310" fill="none" stroke="#8ab4ff" stroke-width="10" stroke-linecap="round" opacity="0.55"/>
  <text x="80" y="105" font-family="Inter, Arial, sans-serif" font-size="44" font-weight="800" fill="#edf2f7">FTP Experiment</text>
  <text x="82" y="154" font-family="Inter, Arial, sans-serif" font-size="24" fill="#9aa8ba">ordinary body, structured training, visible upgrade</text>
</svg>
